<svg id="visual" viewBox="0 0 960 540" width="960" height="540" xmlns="http://www.w3.org/2000/svg" xmlns:xlink="http://www.w3.org/1999/xlink" version="1.1"><rect x="0" y="0" width="960" height="540" fill="#337CCF"></rect><path d="M0 400L22.8 407.8C45.7 415.7 91.3 431.3 137 433C182.7 434.7 228.3 422.3 274 412C319.7 401.7 365.3 393.3 411.2 402.5C457 411.7 503 438.3 548.8 435.2C594.7 432 640.3 399 686 395.2C731.7 391.3 777.3 416.7 823 428.5C868.7 440.3 914.3 438.7 937.2 437.8L960 437L960 541L937.2 541C914.3 541 868.7 541 823 541C777.3 541 731.7 541 686 541C640.3 541 594.7 541 548.8 541C503 541 457 541 411.2 541C365.3 541 319.7 541 274 541C228.3 541 182.7 541 137 541C91.3 541 45.7 541 22.8 541L0 541Z" fill="#FFC436" stroke-linecap="round" stroke-linejoin="miter"></path></svg>